<svg width="24" height="12" viewBox="0 0 24 12" fill="none" xmlns="http://www.w3.org/2000/svg">
	<style>
        path {
            fill: #000000;
            stroke: #000000;
        }
        circle {
            stroke: #000000;
        }
        @media (prefers-color-scheme: dark) {
            path {
                fill: #ffffff;
                stroke: #ffffff;
            }
            circle {
                stroke: #ffffff;
            }
        }
    </style>
<path d="M0 11.986H3.99308L4.80799 9.78237L2.97444 6.02799L0 11.986Z" fill="black"/>
<path d="M10.5939 9.00701L6.1526 0.0699463L4.80799 3.13058L9.0048 11.986H12.028L10.5939 9.00701Z" fill="black"/>
<path fill-rule="evenodd" clip-rule="evenodd" d="M18.014 11.986C21.32 11.986 24 9.30597 24 5.99999C24 2.69401 21.32 0.0139771 18.014 0.0139771C14.708 0.0139771 12.028 2.69401 12.028 5.99999C12.028 9.30597 14.708 11.986 18.014 11.986ZM18.014 9.63635C20.0223 9.63635 21.6503 8.0083 21.6503 5.99999C21.6503 3.99168 20.0223 2.36363 18.014 2.36363C16.0057 2.36363 14.3776 3.99168 14.3776 5.99999C14.3776 8.0083 16.0057 9.63635 18.014 9.63635Z" fill="black"/>
</svg>